<?xml version="1.0" encoding="utf-8"?>
<!-- Generator: Adobe Illustrator 23.0.3, SVG Export Plug-In . SVG Version: 6.00 Build 0)  -->
<svg version="1.1" id="Capa_1" xmlns="http://www.w3.org/2000/svg" xmlns:xlink="http://www.w3.org/1999/xlink" x="0px" y="0px"
	 viewBox="0 0 1242.7 302.8" style="enable-background:new 0 0 1242.7 302.8;" xml:space="preserve">
<style type="text/css">
	.st0{fill:#FFFFFF;}
	.st1{fill:url(#SVGID_1_);}
	.st2{font-family:'Ubuntu-Regular';}
	.st3{font-size:74.7696px;}
</style>
<g>
	<g>
		<path class="st0" d="M212,166.6V212h-30.3v-45.4c0-25.1-20.3-45.4-45.4-45.4c9.5,12.6,15.1,28.4,15.1,45.4V212h-30.3v-45.4
			c0-13.4-5.8-25.5-15.1-33.8c-8-7.2-18.6-11.6-30.3-11.6h0c-25.1,0-45.4,20.3-45.4,45.4V212H0v-45.4c0-41.8,33.9-75.7,75.7-75.7
			c10.8,0,21,2.2,30.3,6.3c9.3-4.1,19.5-6.3,30.3-6.3C178.1,90.9,212,124.8,212,166.6z M454.2,106v106h30.3V106
			C474.5,108,464.1,108,454.2,106z M454.2,60.6v29.9c9.9,2.6,20.4,2.6,30.3,0V60.6H454.2z M696.4,90.9c-33.4,0-60.6,27.1-60.6,60.6
			V212h30.3v-60.6c0-16.7,13.6-30.3,30.3-30.3c16.7,0,30.3,13.6,30.3,30.3V212h30.3v-60.6C756.9,118,729.8,90.9,696.4,90.9z
			 M622.2,152.9c0,34.3-27.8,62.1-62.1,62.1c-34.3,0-62.1-27.8-62.1-62.1c0-34.3,27.8-62.1,62.1-62.1
			C594.4,90.9,622.2,118.7,622.2,152.9z M591.9,152.9c0-17.5-14.2-31.8-31.8-31.8s-31.8,14.2-31.8,31.8c0,17.6,14.2,31.8,31.8,31.8
			S591.9,170.5,591.9,152.9z M393.6,60.6h-30.3c0,41.8,33.9,75.7,75.7,75.7V106C413.9,106,393.6,85.7,393.6,60.6z M75.7,128.7
			c-1.8,0-3.5,0.1-5.2,0.4c-6.3,11.1-9.9,23.8-9.9,37.5V212h30.3v-45.4c0-10.7,3.7-20.6,9.9-28.3C94.1,132.3,85.3,128.7,75.7,128.7z
			 M404.4,177.7c-7.1-6-10.8-14.6-10.8-23.2v-24c-6.2-4-11.7-8.8-16.6-14.2c-5.5-6.2-10.2-13.2-13.7-20.8v59.1
			c0,17.3,7.3,34.4,21.6,46.4c2.7,2.3,5.6,4.3,8.6,6.1c14,8.1,30.4,10.1,45.4,6.2v-32.4C428.3,186.9,414.4,186.1,404.4,177.7z
			 M259.8,180.8c-13.2-13.2-24.4-26.8-33.1-39.7c-3.8,19.6,1.9,40.6,17,55.8c15.2,15.2,36.2,20.8,55.8,17
			C286.6,205.2,273,194,259.8,180.8z M346.1,173.8c7.8-21.9,2.9-47.2-14.6-64.7s-42.9-22.4-64.7-14.6c-4,1.4-7.8,3.2-11.5,5.5
			c2,6.1,7.7,15.3,16,25.7c12.2-7.4,28.3-5.8,38.9,4.8c10.5,10.5,12.1,26.7,4.8,38.9c10.4,8.3,19.6,14,25.7,16
			C342.9,181.6,344.7,177.8,346.1,173.8z"/>
		<linearGradient id="SVGID_1_" gradientUnits="userSpaceOnUse" x1="496.8321" y1="237.6588" x2="274.9433" y2="15.77">
			<stop  offset="0.3" style="stop-color:#CC007E"/>
			<stop  offset="1" style="stop-color:#D9409E"/>
		</linearGradient>
		<path class="st1" d="M362.6,227.9c-12.4,12.4-56-11.1-97.4-52.5s-64.9-85-52.5-97.4c7.3-7.3,25.6-2.1,47.9,11.9
			c-5.9-2.2-10.3-2.4-12.5-0.2c-7.1,7.1,10.2,35.8,38.5,64.2c28.4,28.4,57.1,45.6,64.2,38.5c2.2-2.2,2.1-6.7-0.2-12.5
			C364.7,202.3,369.9,220.5,362.6,227.9z M560.1,137.8c-8.4,0-15.1,6.8-15.1,15.1c0,8.4,6.8,15.1,15.1,15.1
			c8.4,0,15.1-6.8,15.1-15.1C575.3,144.6,568.5,137.8,560.1,137.8z"/>
	</g>
	<text transform="matrix(1 0 0 1 873.041 142.6801)"><tspan x="0" y="0" class="st0 st2 st3">Monitoring</tspan><tspan x="0" y="69.4" class="st0 st2 st3">Innovation</tspan></text>
	<path class="st0" d="M817.5,302.8L817.5,302.8c-1.7,0-3-1.4-3-3V3c0-1.7,1.4-3,3-3l0,0c1.7,0,3,1.4,3,3v296.7
		C820.5,301.4,819.2,302.8,817.5,302.8z"/>
</g>
</svg>
